<svg xmlns="http://www.w3.org/2000/svg" version="1.1" xmlns:xlink="http://www.w3.org/1999/xlink" xmlns:svgjs="http://svgjs.dev/svgjs" width="2000" height="909" viewBox="0 0 2000 909"><g transform="matrix(1,0,0,1,-2.3632829140619833,-2.254080544739452)"><svg viewBox="0 0 211 96" data-background-color="#ffffff" preserveAspectRatio="xMidYMid meet" height="909" width="2000" xmlns="http://www.w3.org/2000/svg" xmlns:xlink="http://www.w3.org/1999/xlink"><g id="tight-bounds" transform="matrix(1,0,0,1,0.24932634743353788,0.23805471099558417)"><svg viewBox="0 0 210.41020731994325 95.5238905780088" height="95.5238905780088" width="210.41020731994325"><g><svg viewBox="0 0 210.41020731994325 95.5238905780088" height="95.5238905780088" width="210.41020731994325"><g><svg viewBox="0 0 210.41020731994325 95.5238905780088" height="95.5238905780088" width="210.41020731994325"><g><svg viewBox="0 0 210.41020731994325 95.5238905780088" height="95.5238905780088" width="210.41020731994325"><g><svg viewBox="0 0 210.41020731994325 70.62570000000001" height="70.62570000000001" width="210.41020731994325"><g><svg><g></g><g></g></svg></g><g><svg><g><svg></svg></g><g></g></svg></g><g id="text-0"><svg viewBox="0 0 210.41020731994325 70.62570000000001" height="70.62570000000001" width="210.41020731994325"><g transform="matrix(1,0,0,1,0,0)"><svg width="126.5276" viewBox="1.1 -37.2 78.2 43.650000000000006" height="70.62570000000001" data-palette-color="#FF0000"><path d="M41.6-34.85L41.6-34.85Q42.65-34.85 42.65-34.1L42.65-34.1Q42.65-31.05 34.25-16.65L34.25-16.65Q34.6-15.3 35.35-13.5L35.35-13.5 50.25-24.85Q58.8-31.35 61.8-33.2L61.8-33.2Q68.5-37.2 74.95-37.2L74.95-37.2Q76.8-37.2 78.35-36.6L78.35-36.6Q79.3-36.25 79.3-35.3 79.3-34.35 78.8-34.35L78.8-34.35Q78.5-34.35 78.18-34.75 77.85-35.15 76.28-35.15 74.7-35.15 71.15-34.35L71.15-34.35Q65.55-33.1 58.45-28.75L58.45-28.75Q54-26 46.55-20.3 39.1-14.6 35.8-12.45L35.8-12.45Q38.35-7.1 42.35-2.5L42.35-2.5Q48.5 4.65 53.4 4.65L53.4 4.65Q55.8 4.65 55.8 2.8L55.8 2.8Q55.8 2.45 55.73 2.1 55.65 1.75 55.9 1.25 56.15 0.75 56.5 0.75L56.5 0.75Q57.15 0.75 57.35 2.3L57.35 2.3Q57.4 2.55 57.4 2.8L57.4 2.8Q57.4 4.4 55.78 5.43 54.15 6.45 51.93 6.45 49.7 6.45 48.2 5.75L48.2 5.75Q44.25 3.8 40.23-1.1 36.2-6 34.05-11.4L34.05-11.4Q31.3-9.8 29.5-9.65L29.5-9.65Q26.15-5.3 21.25-1.2L21.25-1.2Q18.6 1.05 15.5 2.43 12.4 3.8 9.55 3.8L9.55 3.8Q5.5 3.8 3.3 1.78 1.1-0.25 1.1-4.4L1.1-4.4Q1.1-6.45 1.9-8.2L1.9-8.2Q4.45-13.85 9.6-16L9.6-16Q12.45-17.25 15.28-17.25 18.1-17.25 19.05-15.4L19.05-15.4Q19.4-14.75 19.4-14.03 19.4-13.3 19.2-13.1 19-12.9 18.65-13.45L18.65-13.45Q17.45-15.65 16.1-15.9L16.1-15.9Q15.2-16 14.8-16L14.8-16Q10.9-16 7.5-12.75L7.5-12.75Q3.1-8.5 3.1-3.55L3.1-3.55Q3.1 1.85 9.2 2.55L9.2 2.55Q9.4 2.55 9.6 2.55L9.6 2.55Q11.8 2.55 15.25 0.6L15.25 0.6Q20.85-2.6 27.2-10.4L27.2-10.4Q26.05-11.45 26.05-13.5 26.05-15.55 27.58-17.38 29.1-19.2 31.75-19.2L31.75-19.2Q32.5-19.2 33.15-19.05L33.15-19.05Q35.65-23.25 38-28.13 40.35-33 40.35-33.75L40.35-33.75Q40.35-33.85 40.05-33.85 39.75-33.85 36.58-32.27 33.4-30.7 32.05-29.8 30.7-28.9 28.75-26.98 26.8-25.05 26.8-23.85L26.8-23.85Q26.8-23.3 27.58-22.75 28.35-22.2 30.4-22.2L30.4-22.2Q30.65-22.1 30.65-21.93 30.65-21.75 29.28-21.53 27.9-21.3 27.1-21.3L27.1-21.3Q25.3-21.3 25.3-22.8L25.3-22.8Q25.3-24.55 27.45-27 29.6-29.45 32.15-30.85L32.15-30.85Q39.6-34.85 41.6-34.85ZM33.65-12.45L33.65-12.45Q33.25-13.45 33-14.45L33-14.45Q32-13 31-11.6L31-11.6Q31.5-11.6 31.9-11.68 32.3-11.75 33.65-12.45ZM31.75-16.75L31.75-16.75Q31.15-17 30.43-17 29.7-17 28.98-16.1 28.25-15.2 28.25-14.18 28.25-13.15 28.8-12.45L28.8-12.45Q31.25-15.95 31.75-16.75Z" opacity="1" transform="matrix(1,0,0,1,0,0)" fill="#FF0000" class="undefined-text-0" data-fill-palette-color="primary"></path></svg></g><g><svg xmlns="http://www.w3.org/2000/svg" data-name="Layer 1" viewBox="2.0000088223091512 0 58.999982355381704 62" x="143.20190000000002" y="0" height="70.62570000000001" width="67.20830731994326" class="icon-kj-0" data-fill-palette-color="accent" id="kj-0"><path d="M40 58H24a4 4 0 0 0 4 4h8A4 4 0 0 0 40 58Z" fill="#FF0000" data-fill-palette-color="accent"></path><path d="M47 20a5.937 5.937 0 0 0-4.688-5.872 2.494 2.494 0 0 0 1.07 4.75v1a3.495 3.495 0 0 1-1.278-6.75A5.859 5.859 0 0 0 36.379 8 5.627 5.627 0 0 0 33 9.133V24.886a3.467 3.467 0 0 1 2.24-0.833 3.504 3.504 0 0 1 3.5 3.5h-1A2.493 2.493 0 0 0 33 26.464V38.867A5.627 5.627 0 0 0 36.379 40a5.88 5.88 0 0 0 5.775-5.628 2.476 2.476 0 0 0-1.489-0.504 2.503 2.503 0 0 0-2.5 2.5h-1a3.504 3.504 0 0 1 3.5-3.5 3.467 3.467 0 0 1 2.249 0.841A5.958 5.958 0 0 0 47 28a6.092 6.092 0 0 0-1.484-4A6.092 6.092 0 0 0 47 20Z" fill="#FF0000" data-fill-palette-color="accent"></path><path d="M22.828 14c0 0.03 0.004 0.059 0.004 0.089A5.939 5.939 0 0 0 18 20a6.092 6.092 0 0 0 1.484 4A6.092 6.092 0 0 0 18 28a5.938 5.938 0 0 0 4.815 5.906 2.5 2.5 0 0 0-0.969-4.804v-1a3.49 3.49 0 0 1 1.057 6.819A5.857 5.857 0 0 0 28.621 40 5.627 5.627 0 0 0 32 38.867V18.442A3.495 3.495 0 0 1 26 16h1a2.5 2.5 0 0 0 5 0V9.133A5.627 5.627 0 0 0 28.621 8 5.899 5.899 0 0 0 22.828 14Z" fill="#FF0000" data-fill-palette-color="accent"></path><path d="M53.5 22C53.5 10.785 44.056 2 32 2S10.5 10.785 10.5 22c0 5.325 2.1 12.374 5.479 18.396 1.795 3.199 3.824 7.311 3.99 11.114A2.437 2.437 0 0 0 19 53.449v1.101A2.45 2.45 0 0 0 21.449 57H42.551A2.45 2.45 0 0 0 45 54.55v-1.101a2.437 2.437 0 0 0-0.969-1.939c0.165-3.804 2.194-7.916 3.99-11.114C51.4 34.374 53.5 27.325 53.5 22ZM42.038 51H33.375V45h-2v6H21.962c-0.305-4.093-2.398-8.303-4.239-11.583C14.55 33.763 12.5 26.926 12.5 22 12.5 11.907 21.065 4 32 4s19.5 7.907 19.5 18c0 4.926-2.05 11.763-5.223 17.417C44.436 42.697 42.343 46.907 42.038 51Z" fill="#FF0000" data-fill-palette-color="accent"></path><path d="M55.751 9.831a0.268 0.268 0 0 0 0.498 0A4.284 4.284 0 0 1 58.831 7.249a0.268 0.268 0 0 0 0-0.498A4.284 4.284 0 0 1 56.249 4.169a0.268 0.268 0 0 0-0.498 0 4.284 4.284 0 0 1-2.582 2.582 0.268 0.268 0 0 0 0 0.498A4.284 4.284 0 0 1 55.751 9.831Z" fill="#FF0000" data-fill-palette-color="accent"></path><path d="M2.169 4.249A4.284 4.284 0 0 1 4.751 6.831a0.268 0.268 0 0 0 0.498 0A4.284 4.284 0 0 1 7.831 4.249a0.268 0.268 0 0 0 0-0.498A4.284 4.284 0 0 1 5.249 1.169a0.268 0.268 0 0 0-0.498 0A4.284 4.284 0 0 1 2.169 3.751 0.268 0.268 0 0 0 2.169 4.249Z" fill="#FF0000" data-fill-palette-color="accent"></path><path d="M6.751 43.831a0.268 0.268 0 0 0 0.498 0A4.284 4.284 0 0 1 9.831 41.249a0.268 0.268 0 0 0 0-0.498A4.284 4.284 0 0 1 7.249 38.169a0.268 0.268 0 0 0-0.498 0 4.284 4.284 0 0 1-2.582 2.582 0.268 0.268 0 0 0 0 0.498A4.284 4.284 0 0 1 6.751 43.831Z" fill="#FF0000" data-fill-palette-color="accent"></path><path d="M60.831 49.751a4.284 4.284 0 0 1-2.582-2.582 0.268 0.268 0 0 0-0.498 0 4.284 4.284 0 0 1-2.582 2.582 0.268 0.268 0 0 0 0 0.498 4.284 4.284 0 0 1 2.582 2.582 0.268 0.268 0 0 0 0.498 0A4.284 4.284 0 0 1 60.831 50.249 0.268 0.268 0 0 0 60.831 49.751Z" fill="#FF0000" data-fill-palette-color="accent"></path></svg></g></svg></g></svg></g><g transform="matrix(1,0,0,1,40.188349598109156,87.29873275320001)"><svg viewBox="0 0 130.03350812372494 8.225157824808802" height="8.225157824808802" width="130.03350812372494"><g transform="matrix(1,0,0,1,0,0)"><svg width="130.03350812372494" viewBox="4 -32.4 667.09 42.199999999999996" height="8.225157824808802" data-palette-color="#FF0000"><path d="M10.6 0L4 0 4-29.4 10.6-29.4 10.6 0ZM23.7 0L17.6 0 17.6-22.4 21.7-22.4 22.95-21.8Q24.4-22.05 26.5-22.23 28.6-22.4 31.5-22.4L31.5-22.4 34-22.4Q35.45-22.4 36.8-22.03 38.15-21.65 38.8-20.95L38.8-20.95Q40.1-21.6 42.4-22 44.7-22.4 48.4-22.4L48.4-22.4 50.9-22.4Q53.4-22.4 54.75-21.7 56.1-21 56.67-19.95 57.25-18.9 57.37-17.82 57.5-16.75 57.5-16L57.5-16 57.5 0 51.4 0 51.4-16.1Q51.4-18.1 49-18.1L49-18.1 42-18.1Q41.2-18.1 40.9-17.9 40.6-17.7 40.6-17L40.6-17 40.6 0 34.5 0 34.5-16.1Q34.5-18.1 32.1-18.1L32.1-18.1 25.2-18.1Q24.25-18.1 23.97-17.93 23.7-17.75 23.7-17L23.7-17 23.7 0ZM72.2 0L69.7 0Q65.9 0 64.2-1.78 62.5-3.55 62.5-6.65L62.5-6.65Q62.5-9.9 64.27-11.65 66.05-13.4 69.7-13.4L69.7-13.4 72.25-13.4Q76-13.4 79-13.2 82-13 83.95-12.8L83.95-12.8 83.95-16.1Q83.95-16.55 83.85-17.03 83.75-17.5 83.25-17.8 82.75-18.1 81.55-18.1L81.55-18.1 79.05-18.1Q73.6-18.1 69.95-17.93 66.3-17.75 65-17.6L65-17.6 64.45-21.4Q64.45-22.1 68.25-22.25 72.05-22.4 80.95-22.4L80.95-22.4 83.45-22.4Q85.95-22.4 87.3-21.7 88.65-21 89.22-19.95 89.8-18.9 89.92-17.82 90.05-16.75 90.05-16L90.05-16 90.05 0 85.95 0 84-1Q81.9-0.65 78.95-0.33 76 0 72.2 0L72.2 0ZM71-4.3L71-4.3 82.45-4.3Q83.55-4.3 83.75-4.5 83.95-4.7 83.95-5.75L83.95-5.75 83.95-9.6 71-9.6Q69.65-9.6 69.12-8.95 68.6-8.3 68.6-6.9L68.6-6.9Q68.6-5.5 69.2-4.9 69.8-4.3 71-4.3ZM114.74 8.8L112.24 8.8Q106.74 8.8 103.29 8.7 99.84 8.6 97.99 8.4 96.14 8.2 95.47 7.9 94.79 7.6 94.79 7.25L94.79 7.25 96.29 3.5Q97.09 3.75 99.12 4.13 101.14 4.5 104.29 4.5L104.29 4.5 112.84 4.5Q114.69 4.5 115.47 3.95 116.24 3.4 116.24 2L116.24 2 116.24-1Q114.09-0.6 111.17-0.3 108.24 0 104.44 0L104.44 0 101.94 0Q99.44 0 98.09-0.65 96.74-1.3 96.17-2.3 95.59-3.3 95.47-4.4 95.34-5.5 95.34-6.4L95.34-6.4 95.34-16Q95.34-16.75 95.47-17.82 95.59-18.9 96.17-19.95 96.74-21 98.12-21.7 99.49-22.4 101.94-22.4L101.94-22.4 104.49-22.4Q109.74-22.4 112.67-22.2 115.59-22 116.94-21.75L116.94-21.75 118.24-22.4 122.34-22.4 122.34 2.4Q122.34 3.3 122.07 4.4 121.79 5.5 120.99 6.5 120.19 7.5 118.69 8.15 117.19 8.8 114.74 8.8L114.74 8.8ZM103.84-4.3L103.84-4.3 114.69-4.3Q115.84-4.3 116.04-4.5 116.24-4.7 116.24-5.8L116.24-5.8 116.24-17.75Q114.54-17.85 111.94-17.98 109.34-18.1 106.39-18.1L106.39-18.1 103.84-18.1Q101.44-18.1 101.44-16.1L101.44-16.1 101.44-6.3Q101.39-4.3 103.84-4.3ZM131.89-25.55L131.89-25.55Q130.04-25.55 129.19-26.3 128.34-27.05 128.34-28.8L128.34-28.8Q128.34-30.6 129.17-31.33 129.99-32.05 131.89-32.05L131.89-32.05Q133.79-32.05 134.64-31.33 135.49-30.6 135.49-28.8L135.49-28.8Q135.49-27.1 134.64-26.33 133.79-25.55 131.89-25.55ZM134.94 0L128.84 0 128.84-22.4 134.94-22.4 134.94 0ZM147.59 0L141.49 0 141.49-22.4 145.59-22.4 147.59-21.4Q149.69-21.8 152.64-22.1 155.59-22.4 159.39-22.4L159.39-22.4 161.89-22.4Q164.39-22.4 165.74-21.7 167.09-21 167.66-19.95 168.24-18.9 168.36-17.82 168.49-16.75 168.49-16L168.49-16 168.49 0 162.39 0 162.39-16.1Q162.39-18.1 159.99-18.1L159.99-18.1 149.09-18.1Q148.14-18.1 147.86-17.93 147.59-17.75 147.59-17L147.59-17 147.59 0ZM183.19 0L180.69 0Q176.89 0 175.19-1.78 173.49-3.55 173.49-6.65L173.49-6.65Q173.49-9.9 175.26-11.65 177.04-13.4 180.69-13.4L180.69-13.4 183.24-13.4Q186.99-13.4 189.99-13.2 192.99-13 194.94-12.8L194.94-12.8 194.94-16.1Q194.94-16.55 194.84-17.03 194.74-17.5 194.24-17.8 193.74-18.1 192.54-18.1L192.54-18.1 190.04-18.1Q184.59-18.1 180.94-17.93 177.29-17.75 175.99-17.6L175.99-17.6 175.44-21.4Q175.44-22.1 179.24-22.25 183.04-22.4 191.94-22.4L191.94-22.4 194.44-22.4Q196.94-22.4 198.29-21.7 199.64-21 200.21-19.95 200.79-18.9 200.91-17.82 201.04-16.75 201.04-16L201.04-16 201.04 0 196.94 0 194.99-1Q192.89-0.65 189.94-0.33 186.99 0 183.19 0L183.19 0ZM181.99-4.3L181.99-4.3 193.44-4.3Q194.54-4.3 194.74-4.5 194.94-4.7 194.94-5.75L194.94-5.75 194.94-9.6 181.99-9.6Q180.64-9.6 180.11-8.95 179.59-8.3 179.59-6.9L179.59-6.9Q179.59-5.5 180.19-4.9 180.79-4.3 181.99-4.3ZM217.03 0L215.48 0Q211.68 0 210.28-1.6 208.88-3.2 208.88-6.4L208.88-6.4 208.88-18.1 204.78-18.1 204.78-22.4 206.88-22.4Q207.83-22.4 208.26-22.7 208.68-23 208.88-23.9L208.88-23.9 209.88-29.25 214.98-29.25 214.98-22.4 225.38-22.4 225.38-18.1 214.98-18.1 214.98-6.35Q214.98-5.1 215.58-4.7 216.18-4.3 217.38-4.3L217.38-4.3 224.43-4.3 224.93-0.5Q223.88-0.35 221.73-0.18 219.58 0 217.03 0L217.03 0ZM232.93-25.55L232.93-25.55Q231.08-25.55 230.23-26.3 229.38-27.05 229.38-28.8L229.38-28.8Q229.38-30.6 230.21-31.33 231.03-32.05 232.93-32.05L232.93-32.05Q234.83-32.05 235.68-31.33 236.53-30.6 236.53-28.8L236.53-28.8Q236.53-27.1 235.68-26.33 234.83-25.55 232.93-25.55ZM235.98 0L229.88 0 229.88-22.4 235.98-22.4 235.98 0ZM262.43 0L248.63 0Q245.28 0 243.65-1.35 242.03-2.7 242.03-5.75L242.03-5.75 242.03-16Q242.03-16.75 242.15-17.82 242.28-18.9 242.85-19.95 243.43-21 244.8-21.7 246.18-22.4 248.63-22.4L248.63-22.4 262.43-22.4Q264.93-22.4 266.28-21.7 267.63-21 268.2-19.95 268.78-18.9 268.9-17.82 269.03-16.75 269.03-16L269.03-16 269.03-6.4Q269.03-5.5 268.9-4.4 268.78-3.3 268.18-2.3 267.58-1.3 266.23-0.65 264.88 0 262.43 0L262.43 0ZM250.53-4.3L250.53-4.3 260.53-4.3Q262.98-4.3 262.98-6.3L262.98-6.3 262.98-16.1Q262.98-18.1 260.53-18.1L260.53-18.1 250.53-18.1Q248.13-18.1 248.13-16.1L248.13-16.1 248.13-6.3Q248.13-4.3 250.53-4.3ZM280.63 0L274.53 0 274.53-22.4 278.63-22.4 280.63-21.4Q282.73-21.8 285.68-22.1 288.63-22.4 292.43-22.4L292.43-22.4 294.93-22.4Q297.43-22.4 298.78-21.7 300.13-21 300.7-19.95 301.28-18.9 301.4-17.82 301.53-16.75 301.53-16L301.53-16 301.53 0 295.43 0 295.43-16.1Q295.43-18.1 293.03-18.1L293.03-18.1 282.13-18.1Q281.18-18.1 280.9-17.93 280.63-17.75 280.63-17L280.63-17 280.63 0ZM325.87 0L319.27 0 319.27-29.4 325.87-29.4 325.87 0ZM352.67 0L338.52 0Q335.17 0 333.77-0.35 332.37-0.7 332.37-1.05L332.37-1.05 333.87-4.8Q335.32-4.65 339.19-4.48 343.07-4.3 348.77-4.3L348.77-4.3 351.27-4.3Q352.52-4.3 352.84-4.98 353.17-5.65 353.17-6.8L353.17-6.8Q353.17-7.95 352.79-8.65 352.42-9.35 351.27-9.35L351.27-9.35 338.97-9.35Q335.47-9.35 333.92-10.68 332.37-12 332.37-14.65L332.37-14.65 332.37-16.65Q332.37-17.35 332.52-18.3 332.67-19.25 333.27-20.2 333.87-21.15 335.22-21.78 336.57-22.4 338.97-22.4L338.97-22.4 352.77-22.4Q355.77-22.4 357.02-22.05 358.27-21.7 358.27-21.35L358.27-21.35 357.77-17.6Q356.32-17.75 352.42-17.93 348.52-18.1 342.87-18.1L342.87-18.1 340.37-18.1Q339.12-18.1 338.79-17.43 338.47-16.75 338.47-15.85L338.47-15.85Q338.47-14.9 338.79-14.28 339.12-13.65 340.37-13.65L340.37-13.65 352.67-13.65Q356.07-13.65 357.67-12.25 359.27-10.85 359.27-8.7L359.27-8.7 359.27-5.75Q359.27-4.85 359.14-3.85 359.02-2.85 358.42-1.98 357.82-1.1 356.47-0.55 355.12 0 352.67 0L352.67 0ZM404.06 0L376.76 0 376.76-29.4 407.86-29.4 407.86-24.6 383.36-24.6 383.36-17.7 402.06-17.7 402.06-12.75 383.36-12.75 383.36-4.8 408.06-4.8 410.06-0.55Q410.06-0.35 408.71-0.18 407.36 0 404.06 0L404.06 0ZM429.86 0L421.86 0 411.56-22.4 418.56-22.4 424.31-8.6 425.61-5 426.11-5 427.41-8.6 433.26-22.4 440.06-22.4 439.26-19.35 429.86 0ZM459.71 0L449.66 0Q447.16 0 445.81-0.65 444.46-1.3 443.88-2.3 443.31-3.3 443.18-4.4 443.06-5.5 443.06-6.4L443.06-6.4 443.06-16Q443.06-16.75 443.18-17.82 443.31-18.9 443.88-19.95 444.46-21 445.83-21.7 447.21-22.4 449.66-22.4L449.66-22.4 460.41-22.4Q463.71-22.4 465.58-21.78 467.46-21.15 468.23-19.75 469.01-18.35 469.01-16L469.01-16 469.01-8.6 460.26-8.6Q455.76-8.6 452.93-8.8 450.11-9 449.16-9.05L449.16-9.05 449.16-6.3Q449.11-4.3 451.56-4.3L451.56-4.3 454.11-4.3Q456.81-4.3 459.38-4.38 461.96-4.45 464.11-4.58 466.26-4.7 467.56-4.8L467.56-4.8 469.56-1.55Q469.56 0 459.71 0L459.71 0ZM449.16-16.1L449.16-12.9 462.91-12.9 462.91-16.1Q462.91-17.1 462.68-17.5 462.46-17.9 461.36-18 460.26-18.1 457.61-18.1L457.61-18.1 451.56-18.1Q449.16-18.1 449.16-16.1L449.16-16.1ZM480.66 0L474.56 0 474.56-22.4 478.66-22.4 480.56-21.4Q481.86-22.1 483.36-22.5 484.86-22.9 487.16-22.9L487.16-22.9Q490.81-22.9 493.08-22.1 495.36-21.3 496.11-20.9L496.11-20.9 494.36-16.55Q493.76-16.85 492.38-17.32 491.01-17.8 489.16-18.2 487.31-18.6 485.11-18.6L485.11-18.6 484.56-18.6Q482.16-18.6 481.43-17.65 480.71-16.7 480.66-14.5L480.66-14.5 480.66 0ZM503.05 9.8L501.7 9.8Q499.3 9.8 497.3 9.25 495.3 8.7 494.6 8.25L494.6 8.25 496.1 3.75Q496.95 4.1 498.53 4.58 500.1 5.05 502.1 5.05L502.1 5.05 502.65 5.05Q504.95 5.05 506.73 3.68 508.5 2.3 509.45 0L509.45 0 506.95 0 497.15-22.4 504.15-22.4 509.9-8.6 511.2-5 511.7-5 513-8.6 518.85-22.4 525.65-22.4 524.85-19.35Q523.9-17.4 522.68-14.88 521.45-12.35 520.15-9.65 518.85-6.95 517.63-4.45 516.4-1.95 515.45 0L515.45 0Q514 3 512.28 5.2 510.55 7.4 508.33 8.6 506.1 9.8 503.05 9.8L503.05 9.8ZM539.4 0L537.85 0Q534.05 0 532.65-1.6 531.25-3.2 531.25-6.4L531.25-6.4 531.25-18.1 527.15-18.1 527.15-22.4 529.25-22.4Q530.2-22.4 530.63-22.7 531.05-23 531.25-23.9L531.25-23.9 532.25-29.25 537.35-29.25 537.35-22.4 547.75-22.4 547.75-18.1 537.35-18.1 537.35-6.35Q537.35-5.1 537.95-4.7 538.55-4.3 539.75-4.3L539.75-4.3 546.8-4.3 547.3-0.5Q546.25-0.35 544.1-0.18 541.95 0 539.4 0L539.4 0ZM557.85 0L551.75 0 551.75-32.4 557.85-32.4 557.85-21.4Q559.95-21.8 562.9-22.1 565.85-22.4 569.65-22.4L569.65-22.4 572.15-22.4Q574.65-22.4 576-21.7 577.35-21 577.92-19.95 578.5-18.9 578.62-17.82 578.75-16.75 578.75-16L578.75-16 578.75 0 572.65 0 572.65-16.1Q572.65-18.1 570.25-18.1L570.25-18.1 559.35-18.1Q558.4-18.1 558.12-17.93 557.85-17.75 557.85-17L557.85-17 557.85 0ZM588.04-25.55L588.04-25.55Q586.19-25.55 585.34-26.3 584.49-27.05 584.49-28.8L584.49-28.8Q584.49-30.6 585.32-31.33 586.14-32.05 588.04-32.05L588.04-32.05Q589.94-32.05 590.79-31.33 591.64-30.6 591.64-28.8L591.64-28.8Q591.64-27.1 590.79-26.33 589.94-25.55 588.04-25.55ZM591.09 0L584.99 0 584.99-22.4 591.09-22.4 591.09 0ZM603.74 0L597.64 0 597.64-22.4 601.74-22.4 603.74-21.4Q605.84-21.8 608.79-22.1 611.74-22.4 615.54-22.4L615.54-22.4 618.04-22.4Q620.54-22.4 621.89-21.7 623.24-21 623.82-19.95 624.39-18.9 624.52-17.82 624.64-16.75 624.64-16L624.64-16 624.64 0 618.54 0 618.54-16.1Q618.54-18.1 616.14-18.1L616.14-18.1 605.24-18.1Q604.29-18.1 604.02-17.93 603.74-17.75 603.74-17L603.74-17 603.74 0ZM649.34 8.8L646.84 8.8Q641.34 8.8 637.89 8.7 634.44 8.6 632.59 8.4 630.74 8.2 630.06 7.9 629.39 7.6 629.39 7.25L629.39 7.25 630.89 3.5Q631.69 3.75 633.71 4.13 635.74 4.5 638.89 4.5L638.89 4.5 647.44 4.5Q649.29 4.5 650.06 3.95 650.84 3.4 650.84 2L650.84 2 650.84-1Q648.69-0.6 645.76-0.3 642.84 0 639.04 0L639.04 0 636.54 0Q634.04 0 632.69-0.65 631.34-1.3 630.76-2.3 630.19-3.3 630.06-4.4 629.94-5.5 629.94-6.4L629.94-6.4 629.94-16Q629.94-16.75 630.06-17.82 630.19-18.9 630.76-19.95 631.34-21 632.71-21.7 634.09-22.4 636.54-22.4L636.54-22.4 639.09-22.4Q644.34-22.4 647.26-22.2 650.19-22 651.54-21.75L651.54-21.75 652.84-22.4 656.94-22.4 656.94 2.4Q656.94 3.3 656.66 4.4 656.39 5.5 655.59 6.5 654.79 7.5 653.29 8.15 651.79 8.8 649.34 8.8L649.34 8.8ZM638.44-4.3L638.44-4.3 649.29-4.3Q650.44-4.3 650.64-4.5 650.84-4.7 650.84-5.8L650.84-5.8 650.84-17.75Q649.14-17.85 646.54-17.98 643.94-18.1 640.99-18.1L640.99-18.1 638.44-18.1Q636.04-18.1 636.04-16.1L636.04-16.1 636.04-6.3Q635.99-4.3 638.44-4.3ZM667.49 0L667.49 0Q665.64 0 664.79-0.75 663.94-1.5 663.94-3.25L663.94-3.25Q663.94-5.05 664.76-5.78 665.59-6.5 667.49-6.5L667.49-6.5Q669.39-6.5 670.24-5.78 671.09-5.05 671.09-3.25L671.09-3.25Q671.09-1.55 670.24-0.78 669.39 0 667.49 0Z" opacity="1" transform="matrix(1,0,0,1,0,0)" fill="#FF0000" class="undefined-text-1" data-fill-palette-color="secondary" id="text-1"></path></svg></g></svg></g></svg></g></svg></g></svg></g><defs></defs></svg><rect width="210.41020731994325" height="95.5238905780088" fill="none" stroke="none" visibility="hidden"></rect></g></svg></g></svg>